<mxfile host="app.diagrams.net" agent="Mozilla/5.0 (X11; Ubuntu; Linux x86_64; rv:139.0) Gecko/20100101 Firefox/139.0" border="50" scale="3" compressed="false" locked="false" version="27.1.4">
  <diagram name="Blank" id="YmL12bMKpDGza6XwsDPr">
    <mxGraphModel dx="3545" dy="618" grid="0" gridSize="10" guides="1" tooltips="1" connect="1" arrows="1" fold="1" page="0" pageScale="1" pageWidth="827" pageHeight="1169" background="none" math="1" shadow="0">
      <root>
        <mxCell id="X5NqExCQtvZxIxQ7pmgY-0" />
        <mxCell id="1" parent="X5NqExCQtvZxIxQ7pmgY-0" />
        <mxCell id="Gr0Zq-AI6Quabplr0KPa-179" value="Mindmap" style="swimlane;html=1;startSize=20;horizontal=1;containerType=tree;labelBackgroundColor=none;strokeColor=#D4E1F5;strokeWidth=1;fillColor=none;fontFamily=Comic Sans MS;fontSize=9;swimlaneLine=0;dashed=1;collapsible=0;" parent="1" vertex="1">
          <mxGeometry x="55" y="96" width="903" height="483" as="geometry" />
        </mxCell>
        <mxCell id="Gr0Zq-AI6Quabplr0KPa-180" value="Безопасность данных" style="ellipse;whiteSpace=wrap;html=1;align=center;container=1;recursiveResize=0;treeFolding=1;strokeWidth=2;" parent="Gr0Zq-AI6Quabplr0KPa-179" vertex="1">
          <mxGeometry x="273" y="172" width="108" height="53" as="geometry" />
        </mxCell>
        <mxCell id="w0C_dkWrlUpcAMASjvVg-2" value="Конфиденциальные данные" style="whiteSpace=wrap;html=1;shape=partialRectangle;top=0;left=0;bottom=1;right=0;points=[[0,1],[1,1]];fillColor=none;align=center;verticalAlign=bottom;routingCenterY=0.5;snapToPoint=1;recursiveResize=0;autosize=1;treeFolding=1;treeMoving=1;newEdgeStyle={&quot;edgeStyle&quot;:&quot;entityRelationEdgeStyle&quot;,&quot;startArrow&quot;:&quot;none&quot;,&quot;endArrow&quot;:&quot;none&quot;,&quot;segment&quot;:10,&quot;curved&quot;:1,&quot;sourcePerimeterSpacing&quot;:0,&quot;targetPerimeterSpacing&quot;:0};" vertex="1" parent="Gr0Zq-AI6Quabplr0KPa-179">
          <mxGeometry x="469" y="158" width="193" height="26" as="geometry" />
        </mxCell>
        <mxCell id="w0C_dkWrlUpcAMASjvVg-3" value="" style="edgeStyle=entityRelationEdgeStyle;startArrow=none;endArrow=none;segment=10;curved=1;sourcePerimeterSpacing=0;targetPerimeterSpacing=0;rounded=0;exitX=1;exitY=0.5;exitDx=0;exitDy=0;" edge="1" target="w0C_dkWrlUpcAMASjvVg-2" parent="Gr0Zq-AI6Quabplr0KPa-179" source="Gr0Zq-AI6Quabplr0KPa-180">
          <mxGeometry relative="1" as="geometry">
            <mxPoint x="485" y="204" as="sourcePoint" />
          </mxGeometry>
        </mxCell>
        <mxCell id="w0C_dkWrlUpcAMASjvVg-4" value="&lt;div&gt;Персональные данные клиентов&amp;nbsp;&lt;/div&gt;&lt;div&gt;и сотрудников компании&lt;/div&gt;" style="whiteSpace=wrap;html=1;shape=partialRectangle;top=0;left=0;bottom=1;right=0;points=[[0,1],[1,1]];fillColor=#f8cecc;align=center;verticalAlign=bottom;routingCenterY=0.5;snapToPoint=1;recursiveResize=0;autosize=1;treeFolding=1;treeMoving=1;newEdgeStyle={&quot;edgeStyle&quot;:&quot;entityRelationEdgeStyle&quot;,&quot;startArrow&quot;:&quot;none&quot;,&quot;endArrow&quot;:&quot;none&quot;,&quot;segment&quot;:10,&quot;curved&quot;:1,&quot;sourcePerimeterSpacing&quot;:0,&quot;targetPerimeterSpacing&quot;:0};strokeColor=#b85450;" vertex="1" parent="Gr0Zq-AI6Quabplr0KPa-179">
          <mxGeometry x="752" y="119" width="221" height="41" as="geometry" />
        </mxCell>
        <mxCell id="w0C_dkWrlUpcAMASjvVg-5" value="" style="edgeStyle=entityRelationEdgeStyle;startArrow=none;endArrow=none;segment=10;curved=1;sourcePerimeterSpacing=0;targetPerimeterSpacing=0;rounded=0;exitX=1;exitY=1;exitDx=0;exitDy=0;" edge="1" target="w0C_dkWrlUpcAMASjvVg-4" parent="Gr0Zq-AI6Quabplr0KPa-179" source="w0C_dkWrlUpcAMASjvVg-2">
          <mxGeometry relative="1" as="geometry">
            <mxPoint x="688" y="188" as="sourcePoint" />
          </mxGeometry>
        </mxCell>
        <mxCell id="w0C_dkWrlUpcAMASjvVg-8" value="Секретные данные" style="whiteSpace=wrap;html=1;shape=partialRectangle;top=0;left=0;bottom=1;right=0;points=[[0,1],[1,1]];fillColor=none;align=center;verticalAlign=bottom;routingCenterY=0.5;snapToPoint=1;recursiveResize=0;autosize=1;treeFolding=1;treeMoving=1;newEdgeStyle={&quot;edgeStyle&quot;:&quot;entityRelationEdgeStyle&quot;,&quot;startArrow&quot;:&quot;none&quot;,&quot;endArrow&quot;:&quot;none&quot;,&quot;segment&quot;:10,&quot;curved&quot;:1,&quot;sourcePerimeterSpacing&quot;:0,&quot;targetPerimeterSpacing&quot;:0};" vertex="1" parent="Gr0Zq-AI6Quabplr0KPa-179">
          <mxGeometry x="509" y="183" width="142" height="26" as="geometry" />
        </mxCell>
        <mxCell id="w0C_dkWrlUpcAMASjvVg-9" value="" style="edgeStyle=entityRelationEdgeStyle;startArrow=none;endArrow=none;segment=10;curved=1;sourcePerimeterSpacing=0;targetPerimeterSpacing=0;rounded=0;exitX=1;exitY=0.5;exitDx=0;exitDy=0;" edge="1" target="w0C_dkWrlUpcAMASjvVg-8" parent="Gr0Zq-AI6Quabplr0KPa-179" source="Gr0Zq-AI6Quabplr0KPa-180">
          <mxGeometry relative="1" as="geometry">
            <mxPoint x="499" y="229" as="sourcePoint" />
          </mxGeometry>
        </mxCell>
        <mxCell id="w0C_dkWrlUpcAMASjvVg-12" value="Маркетинговые стратегии" style="whiteSpace=wrap;html=1;shape=partialRectangle;top=0;left=0;bottom=1;right=0;points=[[0,1],[1,1]];fillColor=#f8cecc;align=center;verticalAlign=bottom;routingCenterY=0.5;snapToPoint=1;recursiveResize=0;autosize=1;treeFolding=1;treeMoving=1;newEdgeStyle={&quot;edgeStyle&quot;:&quot;entityRelationEdgeStyle&quot;,&quot;startArrow&quot;:&quot;none&quot;,&quot;endArrow&quot;:&quot;none&quot;,&quot;segment&quot;:10,&quot;curved&quot;:1,&quot;sourcePerimeterSpacing&quot;:0,&quot;targetPerimeterSpacing&quot;:0};strokeColor=#b85450;" vertex="1" parent="Gr0Zq-AI6Quabplr0KPa-179">
          <mxGeometry x="724" y="266" width="179" height="26" as="geometry" />
        </mxCell>
        <mxCell id="w0C_dkWrlUpcAMASjvVg-13" value="" style="edgeStyle=entityRelationEdgeStyle;startArrow=none;endArrow=none;segment=10;curved=1;sourcePerimeterSpacing=0;targetPerimeterSpacing=0;rounded=0;exitX=1;exitY=1;exitDx=0;exitDy=0;" edge="1" target="w0C_dkWrlUpcAMASjvVg-12" parent="Gr0Zq-AI6Quabplr0KPa-179" source="w0C_dkWrlUpcAMASjvVg-8">
          <mxGeometry relative="1" as="geometry">
            <mxPoint x="733" y="312" as="sourcePoint" />
          </mxGeometry>
        </mxCell>
        <mxCell id="w0C_dkWrlUpcAMASjvVg-16" value="Финансовые данные" style="whiteSpace=wrap;html=1;shape=partialRectangle;top=0;left=0;bottom=1;right=0;points=[[0,1],[1,1]];fillColor=#f8cecc;align=center;verticalAlign=bottom;routingCenterY=0.5;snapToPoint=1;recursiveResize=0;autosize=1;treeFolding=1;treeMoving=1;newEdgeStyle={&quot;edgeStyle&quot;:&quot;entityRelationEdgeStyle&quot;,&quot;startArrow&quot;:&quot;none&quot;,&quot;endArrow&quot;:&quot;none&quot;,&quot;segment&quot;:10,&quot;curved&quot;:1,&quot;sourcePerimeterSpacing&quot;:0,&quot;targetPerimeterSpacing&quot;:0};strokeColor=#b85450;" vertex="1" parent="Gr0Zq-AI6Quabplr0KPa-179">
          <mxGeometry x="739" y="200" width="151" height="26" as="geometry" />
        </mxCell>
        <mxCell id="w0C_dkWrlUpcAMASjvVg-17" value="" style="edgeStyle=entityRelationEdgeStyle;startArrow=none;endArrow=none;segment=10;curved=1;sourcePerimeterSpacing=0;targetPerimeterSpacing=0;rounded=0;exitX=1;exitY=1;exitDx=0;exitDy=0;" edge="1" target="w0C_dkWrlUpcAMASjvVg-16" parent="Gr0Zq-AI6Quabplr0KPa-179" source="w0C_dkWrlUpcAMASjvVg-8">
          <mxGeometry relative="1" as="geometry">
            <mxPoint x="734" y="246" as="sourcePoint" />
          </mxGeometry>
        </mxCell>
        <mxCell id="w0C_dkWrlUpcAMASjvVg-18" value="&lt;div&gt;Публичные данные&lt;/div&gt;" style="whiteSpace=wrap;html=1;shape=partialRectangle;top=0;left=0;bottom=1;right=0;points=[[0,1],[1,1]];fillColor=none;align=center;verticalAlign=bottom;routingCenterY=0.5;snapToPoint=1;recursiveResize=0;autosize=1;treeFolding=1;treeMoving=1;newEdgeStyle={&quot;edgeStyle&quot;:&quot;entityRelationEdgeStyle&quot;,&quot;startArrow&quot;:&quot;none&quot;,&quot;endArrow&quot;:&quot;none&quot;,&quot;segment&quot;:10,&quot;curved&quot;:1,&quot;sourcePerimeterSpacing&quot;:0,&quot;targetPerimeterSpacing&quot;:0};" vertex="1" parent="Gr0Zq-AI6Quabplr0KPa-179">
          <mxGeometry x="118" y="86" width="144" height="26" as="geometry" />
        </mxCell>
        <mxCell id="w0C_dkWrlUpcAMASjvVg-19" value="" style="edgeStyle=entityRelationEdgeStyle;startArrow=none;endArrow=none;segment=10;curved=1;sourcePerimeterSpacing=0;targetPerimeterSpacing=0;rounded=0;exitX=0;exitY=0.5;exitDx=0;exitDy=0;" edge="1" target="w0C_dkWrlUpcAMASjvVg-18" parent="Gr0Zq-AI6Quabplr0KPa-179" source="Gr0Zq-AI6Quabplr0KPa-180">
          <mxGeometry relative="1" as="geometry">
            <mxPoint x="68" y="145" as="sourcePoint" />
          </mxGeometry>
        </mxCell>
        <mxCell id="w0C_dkWrlUpcAMASjvVg-20" value="Внутренние данные" style="whiteSpace=wrap;html=1;shape=partialRectangle;top=0;left=0;bottom=1;right=0;points=[[0,1],[1,1]];fillColor=none;align=center;verticalAlign=bottom;routingCenterY=0.5;snapToPoint=1;recursiveResize=0;autosize=1;treeFolding=1;treeMoving=1;newEdgeStyle={&quot;edgeStyle&quot;:&quot;entityRelationEdgeStyle&quot;,&quot;startArrow&quot;:&quot;none&quot;,&quot;endArrow&quot;:&quot;none&quot;,&quot;segment&quot;:10,&quot;curved&quot;:1,&quot;sourcePerimeterSpacing&quot;:0,&quot;targetPerimeterSpacing&quot;:0};" vertex="1" parent="Gr0Zq-AI6Quabplr0KPa-179">
          <mxGeometry x="80" y="204" width="147" height="26" as="geometry" />
        </mxCell>
        <mxCell id="w0C_dkWrlUpcAMASjvVg-21" value="" style="edgeStyle=entityRelationEdgeStyle;startArrow=none;endArrow=none;segment=10;curved=1;sourcePerimeterSpacing=0;targetPerimeterSpacing=0;rounded=0;exitX=0;exitY=0.5;exitDx=0;exitDy=0;" edge="1" target="w0C_dkWrlUpcAMASjvVg-20" parent="Gr0Zq-AI6Quabplr0KPa-179" source="Gr0Zq-AI6Quabplr0KPa-180">
          <mxGeometry relative="1" as="geometry">
            <mxPoint x="95" y="212" as="sourcePoint" />
          </mxGeometry>
        </mxCell>
        <mxCell id="w0C_dkWrlUpcAMASjvVg-66" value="Незначительный" style="rounded=0;whiteSpace=wrap;html=1;fillColor=#d5e8d4;strokeColor=#82b366;" vertex="1" parent="Gr0Zq-AI6Quabplr0KPa-179">
          <mxGeometry x="31" y="396" width="142" height="34" as="geometry" />
        </mxCell>
        <mxCell id="w0C_dkWrlUpcAMASjvVg-67" value="Значительный" style="rounded=0;whiteSpace=wrap;html=1;fillColor=#fff2cc;strokeColor=#d6b656;" vertex="1" parent="Gr0Zq-AI6Quabplr0KPa-179">
          <mxGeometry x="31" y="437" width="142" height="34" as="geometry" />
        </mxCell>
        <mxCell id="w0C_dkWrlUpcAMASjvVg-24" value="Каталог недвижимости" style="whiteSpace=wrap;html=1;shape=partialRectangle;top=0;left=0;bottom=1;right=0;points=[[0,1],[1,1]];fillColor=#d5e8d4;align=center;verticalAlign=bottom;routingCenterY=0.5;snapToPoint=1;recursiveResize=0;autosize=1;treeFolding=1;treeMoving=1;newEdgeStyle={&quot;edgeStyle&quot;:&quot;entityRelationEdgeStyle&quot;,&quot;startArrow&quot;:&quot;none&quot;,&quot;endArrow&quot;:&quot;none&quot;,&quot;segment&quot;:10,&quot;curved&quot;:1,&quot;sourcePerimeterSpacing&quot;:0,&quot;targetPerimeterSpacing&quot;:0};strokeColor=#82b366;" vertex="1" parent="1">
          <mxGeometry x="5" y="134" width="163" height="26" as="geometry" />
        </mxCell>
        <mxCell id="w0C_dkWrlUpcAMASjvVg-25" value="" style="edgeStyle=entityRelationEdgeStyle;startArrow=none;endArrow=none;segment=10;curved=1;sourcePerimeterSpacing=0;targetPerimeterSpacing=0;rounded=0;exitX=0;exitY=1;exitDx=0;exitDy=0;" edge="1" target="w0C_dkWrlUpcAMASjvVg-24" parent="1" source="w0C_dkWrlUpcAMASjvVg-18">
          <mxGeometry relative="1" as="geometry">
            <mxPoint x="6" y="180" as="sourcePoint" />
          </mxGeometry>
        </mxCell>
        <mxCell id="w0C_dkWrlUpcAMASjvVg-28" value="Публичная финансовая отчетность" style="whiteSpace=wrap;html=1;shape=partialRectangle;top=0;left=0;bottom=1;right=0;points=[[0,1],[1,1]];fillColor=#d5e8d4;align=center;verticalAlign=bottom;routingCenterY=0.5;snapToPoint=1;recursiveResize=0;autosize=1;treeFolding=1;treeMoving=1;newEdgeStyle={&quot;edgeStyle&quot;:&quot;entityRelationEdgeStyle&quot;,&quot;startArrow&quot;:&quot;none&quot;,&quot;endArrow&quot;:&quot;none&quot;,&quot;segment&quot;:10,&quot;curved&quot;:1,&quot;sourcePerimeterSpacing&quot;:0,&quot;targetPerimeterSpacing&quot;:0};strokeColor=#82b366;" vertex="1" parent="1">
          <mxGeometry x="-60" y="217" width="233" height="26" as="geometry" />
        </mxCell>
        <mxCell id="w0C_dkWrlUpcAMASjvVg-29" value="" style="edgeStyle=entityRelationEdgeStyle;startArrow=none;endArrow=none;segment=10;curved=1;sourcePerimeterSpacing=0;targetPerimeterSpacing=0;rounded=0;" edge="1" target="w0C_dkWrlUpcAMASjvVg-28" parent="1" source="w0C_dkWrlUpcAMASjvVg-18">
          <mxGeometry relative="1" as="geometry">
            <mxPoint x="-24" y="263" as="sourcePoint" />
          </mxGeometry>
        </mxCell>
        <mxCell id="w0C_dkWrlUpcAMASjvVg-30" value="Регламены и внутренние уставы компании, данные CRM" style="whiteSpace=wrap;html=1;shape=partialRectangle;top=0;left=0;bottom=1;right=0;points=[[0,1],[1,1]];fillColor=#fff2cc;align=center;verticalAlign=bottom;routingCenterY=0.5;snapToPoint=1;recursiveResize=0;autosize=1;treeFolding=1;treeMoving=1;newEdgeStyle={&quot;edgeStyle&quot;:&quot;entityRelationEdgeStyle&quot;,&quot;startArrow&quot;:&quot;none&quot;,&quot;endArrow&quot;:&quot;none&quot;,&quot;segment&quot;:10,&quot;curved&quot;:1,&quot;sourcePerimeterSpacing&quot;:0,&quot;targetPerimeterSpacing&quot;:0};strokeColor=#d6b656;" vertex="1" parent="1">
          <mxGeometry x="-257" y="272" width="354" height="26" as="geometry" />
        </mxCell>
        <mxCell id="w0C_dkWrlUpcAMASjvVg-31" value="" style="edgeStyle=entityRelationEdgeStyle;startArrow=none;endArrow=none;segment=10;curved=1;sourcePerimeterSpacing=0;targetPerimeterSpacing=0;rounded=0;exitX=0;exitY=1;exitDx=0;exitDy=0;" edge="1" target="w0C_dkWrlUpcAMASjvVg-30" parent="1" source="w0C_dkWrlUpcAMASjvVg-20">
          <mxGeometry relative="1" as="geometry">
            <mxPoint x="-42" y="316" as="sourcePoint" />
          </mxGeometry>
        </mxCell>
        <mxCell id="w0C_dkWrlUpcAMASjvVg-32" value="Отчеты о планируемых и проведенных капитальных ремонтов" style="whiteSpace=wrap;html=1;shape=partialRectangle;top=0;left=0;bottom=1;right=0;points=[[0,1],[1,1]];fillColor=#fff2cc;align=center;verticalAlign=bottom;routingCenterY=0.5;snapToPoint=1;recursiveResize=0;autosize=1;treeFolding=1;treeMoving=1;newEdgeStyle={&quot;edgeStyle&quot;:&quot;entityRelationEdgeStyle&quot;,&quot;startArrow&quot;:&quot;none&quot;,&quot;endArrow&quot;:&quot;none&quot;,&quot;segment&quot;:10,&quot;curved&quot;:1,&quot;sourcePerimeterSpacing&quot;:0,&quot;targetPerimeterSpacing&quot;:0};strokeColor=#d6b656;" vertex="1" parent="1">
          <mxGeometry x="-313" y="316" width="385" height="26" as="geometry" />
        </mxCell>
        <mxCell id="w0C_dkWrlUpcAMASjvVg-33" value="" style="edgeStyle=entityRelationEdgeStyle;startArrow=none;endArrow=none;segment=10;curved=1;sourcePerimeterSpacing=0;targetPerimeterSpacing=0;rounded=0;" edge="1" target="w0C_dkWrlUpcAMASjvVg-32" parent="1" source="w0C_dkWrlUpcAMASjvVg-20">
          <mxGeometry relative="1" as="geometry">
            <mxPoint x="-77" y="357" as="sourcePoint" />
          </mxGeometry>
        </mxCell>
        <mxCell id="w0C_dkWrlUpcAMASjvVg-34" value="Журналы логов внутренних систем, данные о сетевой инфраструктуре" style="whiteSpace=wrap;html=1;shape=partialRectangle;top=0;left=0;bottom=1;right=0;points=[[0,1],[1,1]];fillColor=#fff2cc;align=center;verticalAlign=bottom;routingCenterY=0.5;snapToPoint=1;recursiveResize=0;autosize=1;treeFolding=1;treeMoving=1;newEdgeStyle={&quot;edgeStyle&quot;:&quot;entityRelationEdgeStyle&quot;,&quot;startArrow&quot;:&quot;none&quot;,&quot;endArrow&quot;:&quot;none&quot;,&quot;segment&quot;:10,&quot;curved&quot;:1,&quot;sourcePerimeterSpacing&quot;:0,&quot;targetPerimeterSpacing&quot;:0};strokeColor=#d6b656;" vertex="1" parent="1">
          <mxGeometry x="-417" y="367" width="431" height="26" as="geometry" />
        </mxCell>
        <mxCell id="w0C_dkWrlUpcAMASjvVg-35" value="" style="edgeStyle=entityRelationEdgeStyle;startArrow=none;endArrow=none;segment=10;curved=1;sourcePerimeterSpacing=0;targetPerimeterSpacing=0;rounded=0;" edge="1" target="w0C_dkWrlUpcAMASjvVg-34" parent="1" source="w0C_dkWrlUpcAMASjvVg-20">
          <mxGeometry relative="1" as="geometry">
            <mxPoint x="-119" y="408" as="sourcePoint" />
          </mxGeometry>
        </mxCell>
        <mxCell id="w0C_dkWrlUpcAMASjvVg-40" value="Эти данные доступны публично для чтения, однако, требуют защиты от несанкционированной модификации" style="whiteSpace=wrap;html=1;shape=partialRectangle;top=0;left=0;bottom=1;right=0;points=[[0,1],[1,1]];fillColor=none;align=center;verticalAlign=bottom;routingCenterY=0.5;snapToPoint=1;recursiveResize=0;autosize=1;treeFolding=1;treeMoving=1;newEdgeStyle={&quot;edgeStyle&quot;:&quot;entityRelationEdgeStyle&quot;,&quot;startArrow&quot;:&quot;none&quot;,&quot;endArrow&quot;:&quot;none&quot;,&quot;segment&quot;:10,&quot;curved&quot;:1,&quot;sourcePerimeterSpacing&quot;:0,&quot;targetPerimeterSpacing&quot;:0};" vertex="1" parent="1">
          <mxGeometry x="-725" y="150" width="647" height="26" as="geometry" />
        </mxCell>
        <mxCell id="w0C_dkWrlUpcAMASjvVg-41" value="" style="edgeStyle=entityRelationEdgeStyle;startArrow=none;endArrow=none;segment=10;curved=1;sourcePerimeterSpacing=0;targetPerimeterSpacing=0;rounded=0;exitX=0;exitY=1;exitDx=0;exitDy=0;" edge="1" target="w0C_dkWrlUpcAMASjvVg-40" parent="1" source="w0C_dkWrlUpcAMASjvVg-24">
          <mxGeometry relative="1" as="geometry">
            <mxPoint x="-120" y="116" as="sourcePoint" />
          </mxGeometry>
        </mxCell>
        <mxCell id="w0C_dkWrlUpcAMASjvVg-46" value="Искажение данных - несанкционированное изменение цен или характеристик может ввести в заблуждение клиентов и нанести ущерб репутации компании." style="whiteSpace=wrap;html=1;shape=partialRectangle;top=0;left=0;bottom=1;right=0;points=[[0,1],[1,1]];fillColor=none;align=center;verticalAlign=bottom;routingCenterY=0.5;snapToPoint=1;recursiveResize=0;autosize=1;treeFolding=1;treeMoving=1;newEdgeStyle={&quot;edgeStyle&quot;:&quot;entityRelationEdgeStyle&quot;,&quot;startArrow&quot;:&quot;none&quot;,&quot;endArrow&quot;:&quot;none&quot;,&quot;segment&quot;:10,&quot;curved&quot;:1,&quot;sourcePerimeterSpacing&quot;:0,&quot;targetPerimeterSpacing&quot;:0};" vertex="1" parent="1">
          <mxGeometry x="-1011" y="191" width="909" height="26" as="geometry" />
        </mxCell>
        <mxCell id="w0C_dkWrlUpcAMASjvVg-47" value="" style="edgeStyle=entityRelationEdgeStyle;startArrow=none;endArrow=none;segment=10;curved=1;sourcePerimeterSpacing=0;targetPerimeterSpacing=0;rounded=0;exitX=0;exitY=1;exitDx=0;exitDy=0;" edge="1" target="w0C_dkWrlUpcAMASjvVg-46" parent="1" source="w0C_dkWrlUpcAMASjvVg-28">
          <mxGeometry relative="1" as="geometry">
            <mxPoint x="-487" y="231" as="sourcePoint" />
          </mxGeometry>
        </mxCell>
        <mxCell id="w0C_dkWrlUpcAMASjvVg-48" value="Эти данные хоть и не представляют угроз при утечке, но могут на время замедлить работу бизнеса при безвозвратной потери. Некачественные данные могут привести к неправильным правам доступа. К примеру, если уволенный сотрудник еще имеет права на вход в личный кабинет сотрудника." style="whiteSpace=wrap;html=1;shape=partialRectangle;top=0;left=0;bottom=1;right=0;points=[[0,1],[1,1]];fillColor=none;align=center;verticalAlign=bottom;routingCenterY=0.5;snapToPoint=1;recursiveResize=0;autosize=1;treeFolding=1;treeMoving=1;newEdgeStyle={&quot;edgeStyle&quot;:&quot;entityRelationEdgeStyle&quot;,&quot;startArrow&quot;:&quot;none&quot;,&quot;endArrow&quot;:&quot;none&quot;,&quot;segment&quot;:10,&quot;curved&quot;:1,&quot;sourcePerimeterSpacing&quot;:0,&quot;targetPerimeterSpacing&quot;:0};" vertex="1" parent="1">
          <mxGeometry x="-2052" y="251" width="1702" height="26" as="geometry" />
        </mxCell>
        <mxCell id="w0C_dkWrlUpcAMASjvVg-49" value="" style="edgeStyle=entityRelationEdgeStyle;startArrow=none;endArrow=none;segment=10;curved=1;sourcePerimeterSpacing=0;targetPerimeterSpacing=0;rounded=0;" edge="1" target="w0C_dkWrlUpcAMASjvVg-48" parent="1" source="w0C_dkWrlUpcAMASjvVg-30">
          <mxGeometry relative="1" as="geometry">
            <mxPoint x="-748" y="283" as="sourcePoint" />
          </mxGeometry>
        </mxCell>
        <mxCell id="w0C_dkWrlUpcAMASjvVg-50" value="Клиенты (т.е. собственники жилья) должны видеть расходы средств, которые они ежемесячно отчисляют компании." style="whiteSpace=wrap;html=1;shape=partialRectangle;top=0;left=0;bottom=1;right=0;points=[[0,1],[1,1]];fillColor=none;align=center;verticalAlign=bottom;routingCenterY=0.5;snapToPoint=1;recursiveResize=0;autosize=1;treeFolding=1;treeMoving=1;newEdgeStyle={&quot;edgeStyle&quot;:&quot;entityRelationEdgeStyle&quot;,&quot;startArrow&quot;:&quot;none&quot;,&quot;endArrow&quot;:&quot;none&quot;,&quot;segment&quot;:10,&quot;curved&quot;:1,&quot;sourcePerimeterSpacing&quot;:0,&quot;targetPerimeterSpacing&quot;:0};" vertex="1" parent="1">
          <mxGeometry x="-1077" y="285" width="686" height="26" as="geometry" />
        </mxCell>
        <mxCell id="w0C_dkWrlUpcAMASjvVg-51" value="" style="edgeStyle=entityRelationEdgeStyle;startArrow=none;endArrow=none;segment=10;curved=1;sourcePerimeterSpacing=0;targetPerimeterSpacing=0;rounded=0;" edge="1" target="w0C_dkWrlUpcAMASjvVg-50" parent="1" source="w0C_dkWrlUpcAMASjvVg-32">
          <mxGeometry relative="1" as="geometry">
            <mxPoint x="-815" y="331" as="sourcePoint" />
          </mxGeometry>
        </mxCell>
        <mxCell id="w0C_dkWrlUpcAMASjvVg-52" value="Утечка данных о деталях IT-инфраструктуре в руки злоумышленникам может облегчить атаку на компанию. Также злоумышленники могут намеренно скрыть следы присутствия для предотвращения обнаружения." style="whiteSpace=wrap;html=1;shape=partialRectangle;top=0;left=0;bottom=1;right=0;points=[[0,1],[1,1]];fillColor=none;align=center;verticalAlign=bottom;routingCenterY=0.5;snapToPoint=1;recursiveResize=0;autosize=1;treeFolding=1;treeMoving=1;newEdgeStyle={&quot;edgeStyle&quot;:&quot;entityRelationEdgeStyle&quot;,&quot;startArrow&quot;:&quot;none&quot;,&quot;endArrow&quot;:&quot;none&quot;,&quot;segment&quot;:10,&quot;curved&quot;:1,&quot;sourcePerimeterSpacing&quot;:0,&quot;targetPerimeterSpacing&quot;:0};" vertex="1" parent="1">
          <mxGeometry x="-1791" y="362" width="1229" height="26" as="geometry" />
        </mxCell>
        <mxCell id="w0C_dkWrlUpcAMASjvVg-53" value="" style="edgeStyle=entityRelationEdgeStyle;startArrow=none;endArrow=none;segment=10;curved=1;sourcePerimeterSpacing=0;targetPerimeterSpacing=0;rounded=0;" edge="1" target="w0C_dkWrlUpcAMASjvVg-52" parent="1" source="w0C_dkWrlUpcAMASjvVg-34">
          <mxGeometry relative="1" as="geometry">
            <mxPoint x="-855" y="389" as="sourcePoint" />
          </mxGeometry>
        </mxCell>
        <mxCell id="w0C_dkWrlUpcAMASjvVg-54" value="Утечка персональных данных приведёт к штрафам, потере доверия клиентов и нарушению закона." style="whiteSpace=wrap;html=1;shape=partialRectangle;top=0;left=0;bottom=1;right=0;points=[[0,1],[1,1]];fillColor=none;align=center;verticalAlign=bottom;routingCenterY=0.5;snapToPoint=1;recursiveResize=0;autosize=1;treeFolding=1;treeMoving=1;newEdgeStyle={&quot;edgeStyle&quot;:&quot;entityRelationEdgeStyle&quot;,&quot;startArrow&quot;:&quot;none&quot;,&quot;endArrow&quot;:&quot;none&quot;,&quot;segment&quot;:10,&quot;curved&quot;:1,&quot;sourcePerimeterSpacing&quot;:0,&quot;targetPerimeterSpacing&quot;:0};" vertex="1" parent="1">
          <mxGeometry x="1164" y="143" width="592" height="26" as="geometry" />
        </mxCell>
        <mxCell id="w0C_dkWrlUpcAMASjvVg-55" value="" style="edgeStyle=entityRelationEdgeStyle;startArrow=none;endArrow=none;segment=10;curved=1;sourcePerimeterSpacing=0;targetPerimeterSpacing=0;rounded=0;" edge="1" target="w0C_dkWrlUpcAMASjvVg-54" parent="1" source="w0C_dkWrlUpcAMASjvVg-4">
          <mxGeometry relative="1" as="geometry">
            <mxPoint x="1130" y="174" as="sourcePoint" />
          </mxGeometry>
        </mxCell>
        <mxCell id="w0C_dkWrlUpcAMASjvVg-56" value="Утечка финансовых данных может привести к значительным убыткам и нарушениям законодательства, связанным с защитой данных платёжных карт.&lt;div&gt;&lt;br&gt;&lt;/div&gt;" style="whiteSpace=wrap;html=1;shape=partialRectangle;top=0;left=0;bottom=1;right=0;points=[[0,1],[1,1]];fillColor=none;align=center;verticalAlign=bottom;routingCenterY=0.5;snapToPoint=1;recursiveResize=0;autosize=1;treeFolding=1;treeMoving=1;newEdgeStyle={&quot;edgeStyle&quot;:&quot;entityRelationEdgeStyle&quot;,&quot;startArrow&quot;:&quot;none&quot;,&quot;endArrow&quot;:&quot;none&quot;,&quot;segment&quot;:10,&quot;curved&quot;:1,&quot;sourcePerimeterSpacing&quot;:0,&quot;targetPerimeterSpacing&quot;:0};" vertex="1" parent="1">
          <mxGeometry x="1070" y="277" width="880" height="41" as="geometry" />
        </mxCell>
        <mxCell id="w0C_dkWrlUpcAMASjvVg-57" value="" style="edgeStyle=entityRelationEdgeStyle;startArrow=none;endArrow=none;segment=10;curved=1;sourcePerimeterSpacing=0;targetPerimeterSpacing=0;rounded=0;exitX=0.958;exitY=1.016;exitDx=0;exitDy=0;exitPerimeter=0;" edge="1" target="w0C_dkWrlUpcAMASjvVg-56" parent="1" source="w0C_dkWrlUpcAMASjvVg-16">
          <mxGeometry relative="1" as="geometry">
            <mxPoint x="1006" y="325" as="sourcePoint" />
          </mxGeometry>
        </mxCell>
        <mxCell id="w0C_dkWrlUpcAMASjvVg-58" value="Компания может потерять конкурентное преимущество если конкуренты завладеют этой информацией." style="whiteSpace=wrap;html=1;shape=partialRectangle;top=0;left=0;bottom=1;right=0;points=[[0,1],[1,1]];fillColor=none;align=center;verticalAlign=bottom;routingCenterY=0.5;snapToPoint=1;recursiveResize=0;autosize=1;treeFolding=1;treeMoving=1;newEdgeStyle={&quot;edgeStyle&quot;:&quot;entityRelationEdgeStyle&quot;,&quot;startArrow&quot;:&quot;none&quot;,&quot;endArrow&quot;:&quot;none&quot;,&quot;segment&quot;:10,&quot;curved&quot;:1,&quot;sourcePerimeterSpacing&quot;:0,&quot;targetPerimeterSpacing&quot;:0};" vertex="1" parent="1">
          <mxGeometry x="1064" y="347" width="618" height="26" as="geometry" />
        </mxCell>
        <mxCell id="w0C_dkWrlUpcAMASjvVg-59" value="" style="edgeStyle=entityRelationEdgeStyle;startArrow=none;endArrow=none;segment=10;curved=1;sourcePerimeterSpacing=0;targetPerimeterSpacing=0;rounded=0;" edge="1" target="w0C_dkWrlUpcAMASjvVg-58" parent="1" source="w0C_dkWrlUpcAMASjvVg-12">
          <mxGeometry relative="1" as="geometry">
            <mxPoint x="1016" y="410" as="sourcePoint" />
            <Array as="points">
              <mxPoint x="932" y="386" />
              <mxPoint x="945" y="384" />
            </Array>
          </mxGeometry>
        </mxCell>
        <mxCell id="w0C_dkWrlUpcAMASjvVg-68" value="Критический" style="rounded=0;whiteSpace=wrap;html=1;fillColor=#f8cecc;strokeColor=#b85450;" vertex="1" parent="1">
          <mxGeometry x="85" y="572" width="142" height="34" as="geometry" />
        </mxCell>
      </root>
    </mxGraphModel>
  </diagram>
</mxfile>
